<mxfile host="65bd71144e" modified="2020-11-21T05:12:18.542Z" agent="5.0 (Windows NT 10.0; Win64; x64) AppleWebKit/537.36 (KHTML, like Gecko) Code/1.51.1 Chrome/83.0.4103.122 Electron/9.3.3 Safari/537.36" etag="w-HgwIw4hx3LsGrMkGtX" version="13.6.5">
    <diagram id="FBvctqEFa5349peKQnd4" name="Page-1">
        <mxGraphModel dx="1204" dy="1599" grid="1" gridSize="10" guides="1" tooltips="1" connect="1" arrows="1" fold="1" page="1" pageScale="1" pageWidth="850" pageHeight="1100" math="0" shadow="0">
            <root>
                <mxCell id="0"/>
                <mxCell id="1" parent="0"/>
                <mxCell id="110" style="edgeStyle=orthogonalEdgeStyle;rounded=0;orthogonalLoop=1;jettySize=auto;html=1;exitX=0.5;exitY=0;exitDx=0;exitDy=0;dashed=1;startArrow=classic;startFill=1;endArrow=classic;endFill=1;entryX=0.5;entryY=1;entryDx=0;entryDy=0;" parent="1" source="2" target="56" edge="1">
                    <mxGeometry relative="1" as="geometry"/>
                </mxCell>
                <mxCell id="82" style="edgeStyle=orthogonalEdgeStyle;rounded=0;orthogonalLoop=1;jettySize=auto;html=1;exitX=0.5;exitY=0;exitDx=0;exitDy=0;startArrow=classic;startFill=1;endArrow=classic;endFill=1;dashed=1;entryX=1;entryY=0.5;entryDx=0;entryDy=0;" parent="1" source="17" target="5" edge="1">
                    <mxGeometry relative="1" as="geometry">
                        <mxPoint x="358" y="-308" as="targetPoint"/>
                    </mxGeometry>
                </mxCell>
                <mxCell id="52" value="GhostAmbusher" style="html=1;" parent="1" vertex="1">
                    <mxGeometry x="678" y="-530" width="110" height="50" as="geometry"/>
                </mxCell>
                <mxCell id="54" value="GhostChaser" style="html=1;" parent="1" vertex="1">
                    <mxGeometry x="548" y="-530" width="110" height="50" as="geometry"/>
                </mxCell>
                <mxCell id="101" style="edgeStyle=orthogonalEdgeStyle;rounded=0;orthogonalLoop=1;jettySize=auto;html=1;exitX=0.5;exitY=0;exitDx=0;exitDy=0;startArrow=none;startFill=0;endArrow=classic;endFill=1;entryX=0.507;entryY=0.993;entryDx=0;entryDy=0;entryPerimeter=0;" parent="1" source="55" target="106" edge="1">
                    <mxGeometry relative="1" as="geometry">
                        <Array as="points">
                            <mxPoint x="323" y="-560"/>
                            <mxPoint x="668" y="-560"/>
                            <mxPoint x="668" y="-580"/>
                            <mxPoint x="715" y="-580"/>
                        </Array>
                    </mxGeometry>
                </mxCell>
                <mxCell id="55" value="GhostIgnorant" style="html=1;" parent="1" vertex="1">
                    <mxGeometry x="268" y="-530" width="110" height="50" as="geometry"/>
                </mxCell>
                <mxCell id="117" style="edgeStyle=orthogonalEdgeStyle;rounded=0;orthogonalLoop=1;jettySize=auto;html=1;exitX=1;exitY=0.5;exitDx=0;exitDy=0;entryX=0;entryY=0.5;entryDx=0;entryDy=0;dashed=1;startArrow=classic;startFill=1;endArrow=classic;endFill=1;" parent="1" source="56" target="54" edge="1">
                    <mxGeometry relative="1" as="geometry"/>
                </mxCell>
                <mxCell id="56" value="GhostWhim" style="html=1;" parent="1" vertex="1">
                    <mxGeometry x="398" y="-530" width="110" height="50" as="geometry"/>
                </mxCell>
                <mxCell id="80" style="edgeStyle=orthogonalEdgeStyle;rounded=0;orthogonalLoop=1;jettySize=auto;html=1;exitX=0.5;exitY=0;exitDx=0;exitDy=0;endArrow=classic;endFill=1;startArrow=circlePlus;startFill=0;entryX=0.441;entryY=0.993;entryDx=0;entryDy=0;entryPerimeter=0;" parent="1" source="35" target="71" edge="1">
                    <mxGeometry relative="1" as="geometry">
                        <mxPoint x="588" y="-900" as="targetPoint"/>
                    </mxGeometry>
                </mxCell>
                <mxCell id="81" style="edgeStyle=orthogonalEdgeStyle;rounded=0;orthogonalLoop=1;jettySize=auto;html=1;entryX=0.5;entryY=1.005;entryDx=0;entryDy=0;entryPerimeter=0;startArrow=circlePlus;startFill=0;endArrow=classic;endFill=1;" parent="1" source="35" target="79" edge="1">
                    <mxGeometry relative="1" as="geometry"/>
                </mxCell>
                <mxCell id="103" style="edgeStyle=orthogonalEdgeStyle;rounded=0;orthogonalLoop=1;jettySize=auto;html=1;exitX=0.5;exitY=0;exitDx=0;exitDy=0;entryX=0.5;entryY=0;entryDx=0;entryDy=0;startArrow=none;startFill=0;endArrow=none;endFill=0;" parent="1" source="55" target="56" edge="1">
                    <mxGeometry relative="1" as="geometry">
                        <Array as="points">
                            <mxPoint x="323" y="-560"/>
                            <mxPoint x="453" y="-560"/>
                        </Array>
                    </mxGeometry>
                </mxCell>
                <mxCell id="104" style="edgeStyle=orthogonalEdgeStyle;rounded=0;orthogonalLoop=1;jettySize=auto;html=1;exitX=0.5;exitY=0;exitDx=0;exitDy=0;entryX=0.5;entryY=0;entryDx=0;entryDy=0;startArrow=none;startFill=0;endArrow=none;endFill=0;" parent="1" source="55" target="54" edge="1">
                    <mxGeometry relative="1" as="geometry">
                        <Array as="points">
                            <mxPoint x="323" y="-560"/>
                            <mxPoint x="603" y="-560"/>
                        </Array>
                    </mxGeometry>
                </mxCell>
                <mxCell id="105" style="edgeStyle=orthogonalEdgeStyle;rounded=0;orthogonalLoop=1;jettySize=auto;html=1;exitX=0.5;exitY=0;exitDx=0;exitDy=0;entryX=0.5;entryY=0;entryDx=0;entryDy=0;startArrow=none;startFill=0;endArrow=none;endFill=0;" parent="1" source="55" target="52" edge="1">
                    <mxGeometry relative="1" as="geometry">
                        <Array as="points">
                            <mxPoint x="323" y="-560"/>
                            <mxPoint x="733" y="-560"/>
                        </Array>
                    </mxGeometry>
                </mxCell>
                <mxCell id="107" style="edgeStyle=orthogonalEdgeStyle;rounded=0;orthogonalLoop=1;jettySize=auto;html=1;exitX=1;exitY=0.5;exitDx=0;exitDy=0;startArrow=none;startFill=0;endArrow=classic;endFill=1;" parent="1" source="32" target="7" edge="1">
                    <mxGeometry relative="1" as="geometry"/>
                </mxCell>
                <mxCell id="109" style="edgeStyle=orthogonalEdgeStyle;rounded=0;orthogonalLoop=1;jettySize=auto;html=1;exitX=1;exitY=0.5;exitDx=0;exitDy=0;entryX=0;entryY=0.5;entryDx=0;entryDy=0;startArrow=classic;startFill=1;endArrow=classic;endFill=1;dashed=1;" parent="1" source="3" target="44" edge="1">
                    <mxGeometry relative="1" as="geometry"/>
                </mxCell>
                <mxCell id="113" style="edgeStyle=orthogonalEdgeStyle;rounded=0;orthogonalLoop=1;jettySize=auto;html=1;exitX=0.5;exitY=0;exitDx=0;exitDy=0;dashed=1;startArrow=classic;startFill=1;endArrow=classic;endFill=1;entryX=0.5;entryY=1;entryDx=0;entryDy=0;" parent="1" source="2" target="55" edge="1">
                    <mxGeometry relative="1" as="geometry"/>
                </mxCell>
                <mxCell id="114" style="edgeStyle=orthogonalEdgeStyle;rounded=0;orthogonalLoop=1;jettySize=auto;html=1;exitX=0.5;exitY=0;exitDx=0;exitDy=0;dashed=1;startArrow=classic;startFill=1;endArrow=classic;endFill=1;entryX=0.5;entryY=1;entryDx=0;entryDy=0;" parent="1" source="2" target="54" edge="1">
                    <mxGeometry relative="1" as="geometry"/>
                </mxCell>
                <mxCell id="115" style="edgeStyle=orthogonalEdgeStyle;rounded=0;orthogonalLoop=1;jettySize=auto;html=1;exitX=0.5;exitY=0;exitDx=0;exitDy=0;dashed=1;startArrow=classic;startFill=1;endArrow=classic;endFill=1;entryX=0.5;entryY=1;entryDx=0;entryDy=0;" parent="1" source="2" target="52" edge="1">
                    <mxGeometry relative="1" as="geometry"/>
                </mxCell>
                <mxCell id="116" style="edgeStyle=orthogonalEdgeStyle;rounded=0;orthogonalLoop=1;jettySize=auto;html=1;exitX=0;exitY=0.5;exitDx=0;exitDy=0;entryX=1;entryY=0.5;entryDx=0;entryDy=0;dashed=1;startArrow=classic;startFill=1;endArrow=classic;endFill=1;" parent="1" source="3" target="34" edge="1">
                    <mxGeometry relative="1" as="geometry"/>
                </mxCell>
                <mxCell id="132" style="edgeStyle=orthogonalEdgeStyle;rounded=0;orthogonalLoop=1;jettySize=auto;html=1;exitX=0.5;exitY=0;exitDx=0;exitDy=0;startArrow=none;startFill=0;endArrow=classic;endFill=1;endSize=6;entryX=0.506;entryY=1.011;entryDx=0;entryDy=0;entryPerimeter=0;" parent="1" source="126" target="125" edge="1">
                    <mxGeometry relative="1" as="geometry">
                        <mxPoint x="138" y="-120" as="targetPoint"/>
                    </mxGeometry>
                </mxCell>
                <mxCell id="126" value="Empty" style="html=1;" parent="1" vertex="1">
                    <mxGeometry x="8" y="-60" width="110" height="50" as="geometry"/>
                </mxCell>
                <mxCell id="127" value="Wall" style="html=1;" parent="1" vertex="1">
                    <mxGeometry x="138" y="-60" width="110" height="50" as="geometry"/>
                </mxCell>
                <mxCell id="138" style="edgeStyle=orthogonalEdgeStyle;rounded=0;orthogonalLoop=1;jettySize=auto;html=1;exitX=1;exitY=0.5;exitDx=0;exitDy=0;entryX=0;entryY=0.5;entryDx=0;entryDy=0;startArrow=classic;startFill=1;endArrow=none;endFill=0;endSize=6;fontColor=#f0f0f0;" parent="1" source="128" target="129" edge="1">
                    <mxGeometry relative="1" as="geometry">
                        <Array as="points">
                            <mxPoint x="420" y="-35"/>
                            <mxPoint x="420" y="-105"/>
                        </Array>
                    </mxGeometry>
                </mxCell>
                <mxCell id="128" value="Fruit" style="html=1;" parent="1" vertex="1">
                    <mxGeometry x="278" y="-60" width="110" height="50" as="geometry"/>
                </mxCell>
                <mxCell id="129" value="SuperFruit" style="html=1;" parent="1" vertex="1">
                    <mxGeometry x="440" y="-130" width="110" height="50" as="geometry"/>
                </mxCell>
                <mxCell id="130" value="Soda" style="html=1;" parent="1" vertex="1">
                    <mxGeometry x="440" y="-60" width="110" height="50" as="geometry"/>
                </mxCell>
                <mxCell id="133" style="edgeStyle=orthogonalEdgeStyle;rounded=0;orthogonalLoop=1;jettySize=auto;html=1;exitX=0.5;exitY=0;exitDx=0;exitDy=0;startArrow=none;startFill=0;endArrow=none;endFill=0;endSize=6;entryX=0.5;entryY=0;entryDx=0;entryDy=0;" parent="1" source="126" target="127" edge="1">
                    <mxGeometry relative="1" as="geometry">
                        <mxPoint x="138" y="-120" as="targetPoint"/>
                    </mxGeometry>
                </mxCell>
                <mxCell id="134" style="edgeStyle=orthogonalEdgeStyle;rounded=0;orthogonalLoop=1;jettySize=auto;html=1;exitX=0.5;exitY=0;exitDx=0;exitDy=0;startArrow=none;startFill=0;endArrow=none;endFill=0;endSize=6;entryX=0.25;entryY=0;entryDx=0;entryDy=0;" parent="1" source="126" target="128" edge="1">
                    <mxGeometry relative="1" as="geometry">
                        <mxPoint x="138" y="-120" as="targetPoint"/>
                    </mxGeometry>
                </mxCell>
                <mxCell id="43" value="ConfigReader" style="swimlane;fontStyle=0;childLayout=stackLayout;horizontal=1;startSize=26;fillColor=none;horizontalStack=0;resizeParent=1;resizeParentMax=0;resizeLast=0;collapsible=1;marginBottom=0;" parent="1" vertex="1">
                    <mxGeometry x="618" y="-390" width="200" height="100" as="geometry"/>
                </mxCell>
                <mxCell id="44" value="+ lives: int&#10;+ map: String&#10;+ modeLengths: ArrayList&lt;Integer&gt;&#10;+ speed: in" style="text;strokeColor=none;fillColor=none;align=left;verticalAlign=top;spacingLeft=4;spacingRight=4;overflow=hidden;rotatable=0;points=[[0,0.5],[1,0.5]];portConstraint=eastwest;" parent="43" vertex="1">
                    <mxGeometry y="26" width="200" height="74" as="geometry"/>
                </mxCell>
                <mxCell id="137" style="edgeStyle=orthogonalEdgeStyle;rounded=0;orthogonalLoop=1;jettySize=auto;html=1;exitX=0.5;exitY=0;exitDx=0;exitDy=0;entryX=1.02;entryY=0.376;entryDx=0;entryDy=0;entryPerimeter=0;startArrow=circlePlus;startFill=0;endArrow=classic;endFill=1;endSize=6;" parent="1" source="6" target="67" edge="1">
                    <mxGeometry relative="1" as="geometry"/>
                </mxCell>
                <mxCell id="31" value="Waka" style="swimlane;fontStyle=1;align=center;verticalAlign=top;childLayout=stackLayout;horizontal=1;startSize=26;horizontalStack=0;resizeParent=1;resizeParentMax=0;resizeLast=0;collapsible=1;marginBottom=0;" parent="1" vertex="1">
                    <mxGeometry x="38" y="-600" width="160" height="210" as="geometry"/>
                </mxCell>
                <mxCell id="32" value="+ points: int&#10;+ downSprite: PImage&#10;+ leftSprite: PImage&#10;+ rightSprite: PImage&#10;+ upSprite: PImage&#10;" style="text;strokeColor=none;fillColor=none;align=left;verticalAlign=top;spacingLeft=4;spacingRight=4;overflow=hidden;rotatable=0;points=[[0,0.5],[1,0.5]];portConstraint=eastwest;" parent="31" vertex="1">
                    <mxGeometry y="26" width="160" height="84" as="geometry"/>
                </mxCell>
                <mxCell id="33" value="" style="line;strokeWidth=1;fillColor=none;align=left;verticalAlign=middle;spacingTop=-1;spacingLeft=3;spacingRight=3;rotatable=0;labelPosition=right;points=[];portConstraint=eastwest;" parent="31" vertex="1">
                    <mxGeometry y="110" width="160" height="8" as="geometry"/>
                </mxCell>
                <mxCell id="34" value="+ move(int): void&#10;+ loadImage(): void&#10;+ checkGhost(): void&#10;+ getFruit(): void&#10;+ chooseSprite(): PImage&#10;" style="text;strokeColor=none;fillColor=none;align=left;verticalAlign=top;spacingLeft=4;spacingRight=4;overflow=hidden;rotatable=0;points=[[0,0.5],[1,0.5]];portConstraint=eastwest;" parent="31" vertex="1">
                    <mxGeometry y="118" width="160" height="92" as="geometry"/>
                </mxCell>
                <mxCell id="118" value="Cell" style="swimlane;fontStyle=1;align=center;verticalAlign=top;childLayout=stackLayout;horizontal=1;startSize=26;horizontalStack=0;resizeParent=1;resizeParentMax=0;resizeLast=0;collapsible=1;marginBottom=0;" parent="1" vertex="1">
                    <mxGeometry x="8" y="-300" width="160" height="170" as="geometry"/>
                </mxCell>
                <mxCell id="119" value="+ app: App&#10;+ sprite: PImage" style="text;strokeColor=none;fillColor=none;align=left;verticalAlign=top;spacingLeft=4;spacingRight=4;overflow=hidden;rotatable=0;points=[[0,0.5],[1,0.5]];portConstraint=eastwest;" parent="118" vertex="1">
                    <mxGeometry y="26" width="160" height="44" as="geometry"/>
                </mxCell>
                <mxCell id="120" value="" style="line;strokeWidth=1;fillColor=none;align=left;verticalAlign=middle;spacingTop=-1;spacingLeft=3;spacingRight=3;rotatable=0;labelPosition=right;points=[];portConstraint=eastwest;" parent="118" vertex="1">
                    <mxGeometry y="70" width="160" height="18" as="geometry"/>
                </mxCell>
                <mxCell id="121" value="+ draw(int, int): void&#10;" style="text;strokeColor=none;fillColor=none;align=left;verticalAlign=top;spacingLeft=4;spacingRight=4;overflow=hidden;rotatable=0;points=[[0,0.5],[1,0.5]];portConstraint=eastwest;" parent="118" vertex="1">
                    <mxGeometry y="88" width="160" height="22" as="geometry"/>
                </mxCell>
                <mxCell id="125" value="+ collide(Waka): void&#10;+ loadImage(): void&#10;+ passable(): boolean" style="text;strokeColor=none;fillColor=none;align=left;verticalAlign=top;spacingLeft=4;spacingRight=4;overflow=hidden;rotatable=0;points=[[0,0.5],[1,0.5]];portConstraint=eastwest;fontStyle=2;" parent="118" vertex="1">
                    <mxGeometry y="110" width="160" height="60" as="geometry"/>
                </mxCell>
                <mxCell id="35" value="Ghost" style="swimlane;fontStyle=3;align=center;verticalAlign=top;childLayout=stackLayout;horizontal=1;startSize=26;horizontalStack=0;resizeParent=1;resizeParentMax=0;resizeLast=0;collapsible=1;marginBottom=0;" parent="1" vertex="1">
                    <mxGeometry x="588" y="-905" width="250" height="300" as="geometry"/>
                </mxCell>
                <mxCell id="36" value="+ waka: Waka&#10;+ type: GhostType&#10;+ mode: GhostMode&#10;+ target: int[]&#10;+ intervalTimer: int&#10;+ intervalIndex: int&#10;+ tempFrame: int&#10;+ frightenedBySoda: boolean&#10;+ frightenedSprite: PImage" style="text;strokeColor=none;fillColor=none;align=left;verticalAlign=top;spacingLeft=4;spacingRight=4;overflow=hidden;rotatable=0;points=[[0,0.5],[1,0.5]];portConstraint=eastwest;" parent="35" vertex="1">
                    <mxGeometry y="26" width="250" height="154" as="geometry"/>
                </mxCell>
                <mxCell id="37" value="" style="line;strokeWidth=1;fillColor=none;align=left;verticalAlign=middle;spacingTop=-1;spacingLeft=3;spacingRight=3;rotatable=0;labelPosition=right;points=[];portConstraint=eastwest;" parent="35" vertex="1">
                    <mxGeometry y="180" width="250" height="8" as="geometry"/>
                </mxCell>
                <mxCell id="38" value="+ chooseMode(): void&#10;+ decideTurn(ArrayList&lt;Direction&gt;): Direction&#10;+ getPossibleTurns(); ArrayList&lt;Direction&gt;&#10;" style="text;strokeColor=none;fillColor=none;align=left;verticalAlign=top;spacingLeft=4;spacingRight=4;overflow=hidden;rotatable=0;points=[[0,0.5],[1,0.5]];portConstraint=eastwest;" parent="35" vertex="1">
                    <mxGeometry y="188" width="250" height="52" as="geometry"/>
                </mxCell>
                <mxCell id="106" value="+ chaseTarget(): int[]&#10;+ scatterTarget(): int[]&#10;+ loadImage(): void" style="text;strokeColor=none;fillColor=none;align=left;verticalAlign=top;spacingLeft=4;spacingRight=4;overflow=hidden;rotatable=0;points=[[0,0.5],[1,0.5]];portConstraint=eastwest;fontStyle=2;" parent="35" vertex="1">
                    <mxGeometry y="240" width="250" height="60" as="geometry"/>
                </mxCell>
                <mxCell id="78" value="&lt;&lt;enumeration&gt;&gt;&#10;GhostType" style="swimlane;fontStyle=1;align=center;verticalAlign=top;childLayout=stackLayout;horizontal=1;startSize=40;horizontalStack=0;resizeParent=1;resizeParentMax=0;resizeLast=0;collapsible=1;marginBottom=0;" parent="1" vertex="1">
                    <mxGeometry x="688" y="-1080" width="155" height="110" as="geometry">
                        <mxRectangle x="345" y="-1630" width="130" height="30" as="alternateBounds"/>
                    </mxGeometry>
                </mxCell>
                <mxCell id="79" value="ambusher&#10;chaser&#10;ignorant&#10;whim" style="text;strokeColor=none;fillColor=none;align=left;verticalAlign=top;spacingLeft=4;spacingRight=4;overflow=hidden;rotatable=0;points=[[0,0.5],[1,0.5]];portConstraint=eastwest;" parent="78" vertex="1">
                    <mxGeometry y="40" width="155" height="70" as="geometry"/>
                </mxCell>
                <mxCell id="70" value="&lt;&lt;enumeration&gt;&gt;&#10;GhostMode" style="swimlane;fontStyle=1;align=center;verticalAlign=top;childLayout=stackLayout;horizontal=1;startSize=40;horizontalStack=0;resizeParent=1;resizeParentMax=0;resizeLast=0;collapsible=1;marginBottom=0;" parent="1" vertex="1">
                    <mxGeometry x="503" y="-1080" width="155" height="110" as="geometry">
                        <mxRectangle x="345" y="-1630" width="130" height="30" as="alternateBounds"/>
                    </mxGeometry>
                </mxCell>
                <mxCell id="71" value="scatter&#10;chase&#10;frightened" style="text;strokeColor=none;fillColor=none;align=left;verticalAlign=top;spacingLeft=4;spacingRight=4;overflow=hidden;rotatable=0;points=[[0,0.5],[1,0.5]];portConstraint=eastwest;" parent="70" vertex="1">
                    <mxGeometry y="40" width="155" height="70" as="geometry"/>
                </mxCell>
                <mxCell id="66" value="&lt;&lt;enumeration&gt;&gt;&#10;Direction" style="swimlane;fontStyle=1;align=center;verticalAlign=top;childLayout=stackLayout;horizontal=1;startSize=40;horizontalStack=0;resizeParent=1;resizeParentMax=0;resizeLast=0;collapsible=1;marginBottom=0;" parent="1" vertex="1">
                    <mxGeometry x="48" y="-1000" width="155" height="160" as="geometry">
                        <mxRectangle x="345" y="-1630" width="130" height="30" as="alternateBounds"/>
                    </mxGeometry>
                </mxCell>
                <mxCell id="67" value="up&#10;down&#10;right&#10;left" style="text;strokeColor=none;fillColor=none;align=left;verticalAlign=top;spacingLeft=4;spacingRight=4;overflow=hidden;rotatable=0;points=[[0,0.5],[1,0.5]];portConstraint=eastwest;" parent="66" vertex="1">
                    <mxGeometry y="40" width="155" height="70" as="geometry"/>
                </mxCell>
                <mxCell id="68" value="" style="line;strokeWidth=1;fillColor=none;align=left;verticalAlign=middle;spacingTop=-1;spacingLeft=3;spacingRight=3;rotatable=0;labelPosition=right;points=[];portConstraint=eastwest;" parent="66" vertex="1">
                    <mxGeometry y="110" width="155" height="8" as="geometry"/>
                </mxCell>
                <mxCell id="69" value="+ getReverse(): Direction" style="text;strokeColor=none;fillColor=none;align=left;verticalAlign=top;spacingLeft=4;spacingRight=4;overflow=hidden;rotatable=0;points=[[0,0.5],[1,0.5]];portConstraint=eastwest;" parent="66" vertex="1">
                    <mxGeometry y="118" width="155" height="42" as="geometry"/>
                </mxCell>
                <mxCell id="83" style="edgeStyle=orthogonalEdgeStyle;rounded=0;orthogonalLoop=1;jettySize=auto;html=1;exitX=0;exitY=0.5;exitDx=0;exitDy=0;startArrow=none;startFill=0;endArrow=classic;endFill=1;" parent="1" source="36" target="7" edge="1">
                    <mxGeometry relative="1" as="geometry"/>
                </mxCell>
                <mxCell id="6" value="MovingObject" style="swimlane;fontStyle=3;align=center;verticalAlign=top;childLayout=stackLayout;horizontal=1;startSize=26;horizontalStack=0;resizeParent=1;resizeParentMax=0;resizeLast=0;collapsible=1;marginBottom=0;" parent="1" vertex="1">
                    <mxGeometry x="273" y="-905" width="250" height="310" as="geometry"/>
                </mxCell>
                <mxCell id="7" value="+ app: App&#10;+ currentDirection: Direction&#10;+ map: Map&#10;+ sprite: PImage&#10;+ x: int&#10;+ xStart: int&#10;+ xVel: int&#10;+ y: int&#10;+ yStart: int&#10;+ yVel:int&#10;" style="text;strokeColor=none;fillColor=none;align=left;verticalAlign=top;spacingLeft=4;spacingRight=4;overflow=hidden;rotatable=0;points=[[0,0.5],[1,0.5]];portConstraint=eastwest;" parent="6" vertex="1">
                    <mxGeometry y="26" width="250" height="154" as="geometry"/>
                </mxCell>
                <mxCell id="8" value="" style="line;strokeWidth=1;fillColor=none;align=left;verticalAlign=middle;spacingTop=-1;spacingLeft=3;spacingRight=3;rotatable=0;labelPosition=right;points=[];portConstraint=eastwest;" parent="6" vertex="1">
                    <mxGeometry y="180" width="250" height="8" as="geometry"/>
                </mxCell>
                <mxCell id="9" value="+ checkAtIntersection(): boolean&#10;+ checkPassable(String, int): boolean&#10;+ moveRandom(): void&#10;+ resetPosition(): void" style="text;strokeColor=none;fillColor=none;align=left;verticalAlign=top;spacingLeft=4;spacingRight=4;overflow=hidden;rotatable=0;points=[[0,0.5],[1,0.5]];portConstraint=eastwest;fontStyle=0;" parent="6" vertex="1">
                    <mxGeometry y="188" width="250" height="62" as="geometry"/>
                </mxCell>
                <mxCell id="51" value="+ tick(): void&#10;+ tickMovement(): void&#10;+ draw(): void" style="text;strokeColor=none;fillColor=none;align=left;verticalAlign=top;spacingLeft=4;spacingRight=4;overflow=hidden;rotatable=0;points=[[0,0.5],[1,0.5]];portConstraint=eastwest;fontStyle=2;" parent="6" vertex="1">
                    <mxGeometry y="250" width="250" height="60" as="geometry"/>
                </mxCell>
                <mxCell id="17" value="Map&#10;" style="swimlane;fontStyle=1;align=center;verticalAlign=top;childLayout=stackLayout;horizontal=1;startSize=26;horizontalStack=0;resizeParent=1;resizeParentMax=0;resizeLast=0;collapsible=1;marginBottom=0;" parent="1" vertex="1">
                    <mxGeometry x="583" y="-220" width="260" height="210" as="geometry"/>
                </mxCell>
                <mxCell id="18" value="+ app: App&#10;+ fruitCount: int&#10;+ ghostPoints: ArrayList&lt;ArrayList&lt;Integer&gt;&gt;&#10;+ playerPoint: ArrayList&lt;Integer&gt;&#10;+ grid: ArrayList&lt;ArrayList&lt;Cell&gt;&gt;&#10;+ lives: int&#10;" style="text;strokeColor=none;fillColor=none;align=left;verticalAlign=top;spacingLeft=4;spacingRight=4;overflow=hidden;rotatable=0;points=[[0,0.5],[1,0.5]];portConstraint=eastwest;" parent="17" vertex="1">
                    <mxGeometry y="26" width="260" height="104" as="geometry"/>
                </mxCell>
                <mxCell id="19" value="" style="line;strokeWidth=1;fillColor=none;align=left;verticalAlign=middle;spacingTop=-1;spacingLeft=3;spacingRight=3;rotatable=0;labelPosition=right;points=[];portConstraint=eastwest;" parent="17" vertex="1">
                    <mxGeometry y="130" width="260" height="8" as="geometry"/>
                </mxCell>
                <mxCell id="20" value="+ parseMap(String): ArrayList&lt;ArrayList&lt;Cell&gt;&gt;&#10;+ draw(): void&#10;+ remove(Cell): void&#10;+ loadImages(): void&#10; " style="text;strokeColor=none;fillColor=none;align=left;verticalAlign=top;spacingLeft=4;spacingRight=4;overflow=hidden;rotatable=0;points=[[0,0.5],[1,0.5]];portConstraint=eastwest;" parent="17" vertex="1">
                    <mxGeometry y="138" width="260" height="72" as="geometry"/>
                </mxCell>
                <mxCell id="140" style="edgeStyle=orthogonalEdgeStyle;rounded=0;orthogonalLoop=1;jettySize=auto;html=1;exitX=1;exitY=0.5;exitDx=0;exitDy=0;entryX=0;entryY=0.5;entryDx=0;entryDy=0;startArrow=classic;startFill=1;endArrow=none;endFill=0;endSize=6;fontColor=#f0f0f0;" parent="1" source="128" target="130" edge="1">
                    <mxGeometry relative="1" as="geometry"/>
                </mxCell>
                <mxCell id="141" style="edgeStyle=orthogonalEdgeStyle;rounded=0;orthogonalLoop=1;jettySize=auto;html=1;exitX=0;exitY=0.5;exitDx=0;exitDy=0;entryX=1;entryY=0.5;entryDx=0;entryDy=0;startArrow=diamond;startFill=1;endArrow=none;endFill=0;endSize=6;fontColor=#f0f0f0;startSize=17;" parent="1" source="18" target="119" edge="1">
                    <mxGeometry relative="1" as="geometry">
                        <Array as="points">
                            <mxPoint x="200" y="-142"/>
                            <mxPoint x="200" y="-252"/>
                        </Array>
                    </mxGeometry>
                </mxCell>
                <mxCell id="2" value="App" style="swimlane;fontStyle=1;align=center;verticalAlign=top;childLayout=stackLayout;horizontal=1;startSize=26;horizontalStack=0;resizeParent=1;resizeParentMax=0;resizeLast=0;collapsible=1;marginBottom=0;" parent="1" vertex="1">
                    <mxGeometry x="318" y="-430" width="170" height="270" as="geometry"/>
                </mxCell>
                <mxCell id="3" value="+ config: ConfigReader&#10;+ configName: String&#10;+ font: PFont&#10;+ isDebugging: boolean&#10;+ running: boolean&#10;+ ghosts: ArrayList&lt;Ghost&gt;&#10;+ waka: Waka&#10;+ map: Map&#10;+ tempFrame: int&#10;" style="text;strokeColor=none;fillColor=none;align=left;verticalAlign=top;spacingLeft=4;spacingRight=4;overflow=hidden;rotatable=0;points=[[0,0.5],[1,0.5]];portConstraint=eastwest;" parent="2" vertex="1">
                    <mxGeometry y="26" width="170" height="114" as="geometry"/>
                </mxCell>
                <mxCell id="142" value="+ HEIGHT: int=576&#10;+ WIDTH: int=448" style="text;strokeColor=none;fillColor=none;align=left;verticalAlign=top;spacingLeft=4;spacingRight=4;overflow=hidden;rotatable=0;points=[[0,0.5],[1,0.5]];portConstraint=eastwest;fontStyle=4;" parent="2" vertex="1">
                    <mxGeometry y="140" width="170" height="40" as="geometry"/>
                </mxCell>
                <mxCell id="4" value="" style="line;strokeWidth=1;fillColor=none;align=left;verticalAlign=middle;spacingTop=-1;spacingLeft=3;spacingRight=3;rotatable=0;labelPosition=right;points=[];portConstraint=eastwest;" parent="2" vertex="1">
                    <mxGeometry y="180" width="170" height="8" as="geometry"/>
                </mxCell>
                <mxCell id="5" value="+ draw(): void&#10;+ keyPressed(): void&#10;+ newGame((): void&#10;+ settings(): void&#10;+ setup: void" style="text;strokeColor=none;fillColor=none;align=left;verticalAlign=top;spacingLeft=4;spacingRight=4;overflow=hidden;rotatable=0;points=[[0,0.5],[1,0.5]];portConstraint=eastwest;" parent="2" vertex="1">
                    <mxGeometry y="188" width="170" height="82" as="geometry"/>
                </mxCell>
            </root>
        </mxGraphModel>
    </diagram>
</mxfile>